<svg width="512" height="512" viewBox="0 0 512 512" fill="none" xmlns="http://www.w3.org/2000/svg">
  <!-- 背景：角丸正方形 -->
  <rect width="512" height="512" rx="110" fill="#F8FAFC"/>
  
  <!-- 太陽のグラデーション背景 -->
  <circle cx="256" cy="256" r="180" fill="url(#sun_grad)"/>
  
  <!-- 太陽の光跡（シンプルでモダンなライン） -->
  <path d="M256 50V90" stroke="white" stroke-width="20" stroke-linecap="round" opacity="0.6"/>
  <path d="M406 106L378 134" stroke="white" stroke-width="20" stroke-linecap="round" opacity="0.6"/>
  <path d="M462 256H422" stroke="white" stroke-width="20" stroke-linecap="round" opacity="0.6"/>
  <path d="M106 106L134 134" stroke="white" stroke-width="20" stroke-linecap="round" opacity="0.6"/>
  <path d="M50 256H90" stroke="white" stroke-width="20" stroke-linecap="round" opacity="0.6"/>

  <!-- 手紙/ドキュメントのシンボル -->
  <g filter="url(#shadow)">
    <path d="M160 200C160 188.954 168.954 180 180 180H332C343.046 180 352 188.954 352 200V320C352 331.046 343.046 340 332 340H180C168.954 340 160 331.046 160 320V200Z" fill="white"/>
    <!-- 封筒の封の部分（上部のV字ライン） -->
    <path d="M160 200L256 280L352 200" stroke="#FF8E53" stroke-width="12" stroke-linejoin="round" stroke-linecap="round"/>
    <!-- レポートの行をイメージしたライン -->
    <rect x="200" y="295" width="112" height="8" rx="4" fill="#FFE0D0"/>
    <rect x="230" y="315" width="82" height="8" rx="4" fill="#FFE0D0"/>
  </g>

  <defs>
    <linearGradient id="sun_grad" x1="256" y1="76" x2="256" y2="436" gradientUnits="userSpaceOnUse">
      <stop stop-color="#FFAD7E"/>
      <stop offset="1" stop-color="#FF5F6D"/>
    </linearGradient>
    <filter id="shadow" x="140" y="170" width="232" height="190" filterUnits="userSpaceOnUse" color-interpolation-filters="sRGB">
      <feFlood flood-opacity="0" result="BackgroundImageFix"/>
      <feColorMatrix in="SourceAlpha" type="matrix" values="0 0 0 0 0 0 0 0 0 0 0 0 0 0 0 0 0 0 127 0" result="hardAlpha"/>
      <feOffset dy="10"/>
      <feGaussianBlur stdDeviation="10"/>
      <feComposite in2="hardAlpha" operator="out"/>
      <feColorMatrix type="matrix" values="0 0 0 0 0.8 0 0 0 0 0.3 0 0 0 0 0.1 0 0 0 0.2 0"/>
      <feBlend mode="normal" in2="BackgroundImageFix" result="effect1_dropShadow"/>
      <feBlend mode="normal" in="SourceGraphic" in2="effect1_dropShadow" result="shape"/>
    </filter>
  </defs>
</svg>
